<?xml version="1.0" encoding="UTF-8"?>
<svg id="Layer_2" data-name="Layer 2" xmlns="http://www.w3.org/2000/svg" xmlns:xlink="http://www.w3.org/1999/xlink" viewBox="0 0 480.13 90.05">
  <defs>
    <style>
      .cls-1 {
        fill: url(#Degradado_sin_nombre_2-12);
      }

      .cls-2 {
        fill: url(#Degradado_sin_nombre_2-11);
      }

      .cls-3 {
        fill: url(#Degradado_sin_nombre_2-10);
      }

      .cls-4 {
        fill: url(#Degradado_sin_nombre_2-6);
      }

      .cls-5 {
        fill: url(#Degradado_sin_nombre_2-8);
      }

      .cls-6 {
        fill: url(#Degradado_sin_nombre_2-9);
      }

      .cls-7 {
        fill: url(#Degradado_sin_nombre_2-4);
      }

      .cls-8 {
        fill: url(#Degradado_sin_nombre_2-7);
      }

      .cls-9 {
        fill: url(#Degradado_sin_nombre_2-5);
      }

      .cls-10 {
        fill: url(#Degradado_sin_nombre_2-3);
      }

      .cls-11 {
        fill: url(#Degradado_sin_nombre_2-2);
      }

      .cls-12 {
        fill: url(#Degradado_sin_nombre_2);
      }
    </style>
    <linearGradient id="Degradado_sin_nombre_2" data-name="Degradado sin nombre 2" x1="44.89" y1="67.47" x2="89.77" y2="67.47" gradientUnits="userSpaceOnUse">
      <stop offset="0" stop-color="#005b89"/>
      <stop offset="1" stop-color="#008dd0"/>
    </linearGradient>
    <linearGradient id="Degradado_sin_nombre_2-2" data-name="Degradado sin nombre 2" x1="22.44" y1="38.81" x2="22.44" y2="14.34" xlink:href="#Degradado_sin_nombre_2"/>
    <linearGradient id="Degradado_sin_nombre_2-3" data-name="Degradado sin nombre 2" x1="25.6" y1="78.86" x2="25.6" y2="48.09" xlink:href="#Degradado_sin_nombre_2"/>
    <linearGradient id="Degradado_sin_nombre_2-4" data-name="Degradado sin nombre 2" x1="4724.17" y1="6925.21" x2="4724.17" y2="6894.44" gradientTransform="translate(4788.34 6936.41) rotate(-180)" xlink:href="#Degradado_sin_nombre_2"/>
    <linearGradient id="Degradado_sin_nombre_2-5" data-name="Degradado sin nombre 2" x1="140.89" y1="-18.61" x2="140.89" y2="102.48" xlink:href="#Degradado_sin_nombre_2"/>
    <linearGradient id="Degradado_sin_nombre_2-6" data-name="Degradado sin nombre 2" x1="250.79" y1="-18.61" x2="250.79" y2="102.48" xlink:href="#Degradado_sin_nombre_2"/>
    <linearGradient id="Degradado_sin_nombre_2-7" data-name="Degradado sin nombre 2" x1="201.28" y1="-18.61" x2="201.28" y2="102.48" xlink:href="#Degradado_sin_nombre_2"/>
    <linearGradient id="Degradado_sin_nombre_2-8" data-name="Degradado sin nombre 2" x1="201.28" y1="-18.61" x2="201.28" y2="102.48" xlink:href="#Degradado_sin_nombre_2"/>
    <linearGradient id="Degradado_sin_nombre_2-9" data-name="Degradado sin nombre 2" x1="319.65" y1="-18.61" x2="319.65" y2="102.48" xlink:href="#Degradado_sin_nombre_2"/>
    <linearGradient id="Degradado_sin_nombre_2-10" data-name="Degradado sin nombre 2" x1="433.05" y1="-18.61" x2="433.05" y2="102.48" xlink:href="#Degradado_sin_nombre_2"/>
    <linearGradient id="Degradado_sin_nombre_2-11" data-name="Degradado sin nombre 2" x1="379.14" y1="-18.61" x2="379.14" y2="102.48" xlink:href="#Degradado_sin_nombre_2"/>
    <linearGradient id="Degradado_sin_nombre_2-12" data-name="Degradado sin nombre 2" x1="470.69" y1="85.18" x2="480.13" y2="85.18" xlink:href="#Degradado_sin_nombre_2"/>
  </defs>
  <g id="Layer_1-2" data-name="Layer 1">
    <g>
      <g>
        <path class="cls-12" d="M44.89,65.29c4.03,7.31,6.32,15.7,6.32,24.62,0-21.26,17.3-38.56,38.56-38.56-8.92,0-17.31-2.3-24.62-6.32-8.52,4.69-15.57,11.74-20.27,20.27Z"/>
        <path class="cls-11" d="M44.89,24.76c-4.03-7.31-6.32-15.7-6.32-24.62,0,21.26-17.3,38.56-38.56,38.56,8.92,0,17.31,2.3,24.62,6.32,8.52-4.69,15.57-11.74,20.27-20.27Z"/>
      </g>
      <path class="cls-10" d="M44.89,65.29c-4.69-8.52-11.74-15.57-20.27-20.27C17.31,41,8.92,38.7,0,38.7v12.64c21.26,0,38.57,17.3,38.57,38.56h12.64c0-8.92-2.3-17.31-6.32-24.62Z"/>
      <path class="cls-7" d="M44.89,24.76c4.69,8.52,11.74,15.57,20.27,20.27,7.31,4.03,15.7,6.32,24.62,6.32v-12.64c-21.26,0-38.57-17.3-38.57-38.56h-12.64c0,8.92,2.3,17.31,6.32,24.62Z"/>
    </g>
    <g>
      <g>
        <path class="cls-9" d="M158.45,12.68l-17.56,57.88-17.56-57.88S119.84.14,98.79.14l29.55,83.35s3.07,6.41,12.55,6.41,12.55-6.41,12.55-6.41L182.98.14c-21.05,0-24.53,12.54-24.53,12.54Z"/>
        <path class="cls-4" d="M272.97,0h-9.91v30.23c-3.75-3.41-8.24-5.41-13.07-5.41h-5.61c-13.09,0-23.7,14.6-23.7,32.61s10.61,32.61,23.7,32.61h5.61c5.29,0,10.18-2.39,14.13-6.43,1.35,2.24,3.86,3.75,6.75,3.75h10.03V7.64c0-4.22-3.55-7.64-7.93-7.64ZM263.06,73.59c-1.99,1.59-4.3,2.51-6.77,2.51h-3.21c-7.49,0-13.56-8.36-13.56-18.66s6.07-18.66,13.56-18.66h3.21c2.47,0,4.78.92,6.77,2.51v32.31Z"/>
        <path class="cls-8" d="M200.49,24.95h-8.14v55.4c0,5.28,4.28,9.55,9.55,9.55h8.29v-55.25c0-5.36-4.35-9.71-9.71-9.71Z"/>
        <path class="cls-5" d="M201.28,0c-5.7,0-10.31,4.62-10.31,10.31s4.62,10.31,10.31,10.31,10.31-4.62,10.31-10.31-4.62-10.31-10.31-10.31Z"/>
        <path class="cls-6" d="M341.07,34.11c-4.75-6.11-11.75-9.16-21-9.16-4.63,0-8.72.73-12.29,2.2-3.57,1.46-6.59,3.58-9.07,6.34-2.48,2.76-4.36,6.07-5.66,9.92-1.3,3.85-1.95,8.16-1.95,12.93,0,22.42,9.98,33.64,29.94,33.64,6.41,0,11.93-1.72,16.55-5.15,6.18-4.61,3.01-14.69-4.62-14.69h-1.96c-.57,2.18-1.85,3.87-3.83,5.08-1.99,1.22-4.28,1.82-6.88,1.82-3.89,0-7.04-1.38-9.43-4.14-2.39-2.76-3.71-6.49-3.96-11.17h41.26c0-12.3-2.37-21.5-7.12-27.61ZM307.42,51.43c.32-4.27,1.64-7.59,3.96-9.98,2.31-2.38,5.05-3.58,8.22-3.58,1.54,0,3.04.27,4.5.82,1.46.54,2.76,1.38,3.89,2.51,1.14,1.13,2.05,2.55,2.74,4.27.69,1.71,1.07,3.7,1.16,5.96h-24.47Z"/>
        <path class="cls-3" d="M446.39,70.13h-1.96c-.57,2.18-1.85,3.87-3.83,5.08-1.99,1.22-4.28,1.82-6.88,1.82-3.89,0-7.04-1.38-9.43-4.14-2.39-2.76-3.71-6.49-3.96-11.17h41.26c0-12.3-2.37-21.5-7.12-27.61-4.75-6.11-11.75-9.16-21-9.16-4.63,0-8.72.73-12.29,2.2-3.57,1.46-6.59,3.58-9.07,6.34-2.48,2.76-4.36,6.07-5.66,9.92-1.3,3.85-1.95,8.16-1.95,12.93,0,22.42,9.98,33.64,29.94,33.64,6.41,0,11.93-1.72,16.55-5.15,6.18-4.61,3.01-14.69-4.62-14.69ZM424.77,41.45c2.31-2.38,5.05-3.58,8.22-3.58,1.54,0,3.04.27,4.5.82,1.46.54,2.76,1.38,3.89,2.51,1.14,1.13,2.05,2.55,2.74,4.27.69,1.71,1.07,3.7,1.16,5.96h-24.47c.32-4.27,1.64-7.59,3.96-9.98Z"/>
        <path class="cls-2" d="M395.38,27.12c-5.48-1.78-11.26-1.64-17.33.4-1.38.46-2.69.97-3.93,1.51-1.36-2.42-3.95-4.06-6.92-4.06h-9.91v57.15c0,4.31,3.5,7.81,7.81,7.81h10.03v-45.32c1.47-2.13,3.58-3.67,6.35-4.6,2.46-.83,4.83-.98,7.1-.47,2.27.51,4.02,1.71,5.25,3.6l1.85-.62c7.23-2.43,7.02-12.99-.31-15.39Z"/>
      </g>
      <path class="cls-1" d="M478.75,88.52c-.92.93-2.04,1.39-3.35,1.39s-2.42-.46-3.34-1.39c-.91-.92-1.37-2.04-1.37-3.36s.46-2.41,1.38-3.34,2.03-1.38,3.33-1.38,2.43.46,3.35,1.38,1.38,2.03,1.38,3.34-.46,2.43-1.38,3.36ZM472.53,82.29c-.79.79-1.19,1.75-1.19,2.88s.39,2.1,1.18,2.9c.79.8,1.75,1.2,2.88,1.2s2.09-.4,2.88-1.2,1.19-1.76,1.19-2.9-.4-2.08-1.19-2.88c-.79-.8-1.75-1.2-2.88-1.2s-2.08.4-2.87,1.2ZM475.31,82.55c.64,0,1.12.06,1.42.19.54.22.81.66.81,1.32,0,.46-.17.81-.51,1.03-.18.12-.43.2-.75.25.41.06.7.23.89.51.19.27.28.54.28.8v.38c0,.12,0,.25.01.39,0,.14.02.23.05.27l.03.06h-.86v-.05s-.02-.04-.03-.06l-.02-.17v-.41c0-.6-.16-1-.49-1.19-.19-.11-.53-.17-1.02-.17h-.72v2.04h-.91v-5.19h1.82ZM476.3,83.37c-.23-.13-.6-.19-1.11-.19h-.78v1.88h.83c.39,0,.68-.04.87-.12.36-.14.54-.41.54-.81,0-.38-.11-.63-.35-.76Z"/>
    </g>
  </g>
</svg>