<svg width="326" height="147" viewBox="0 0 326 147" fill="none" xmlns="http://www.w3.org/2000/svg">
<g clip-path="url(#clip0_60_92)">
<path d="M39.3981 70.7668L27.7993 108.945L16.2006 70.7668C16.2006 70.7668 13.8997 62.4946 0 62.4946L19.5104 117.478C19.5104 117.478 21.5354 121.705 27.7921 121.705C34.0488 121.705 36.0738 117.478 36.0738 117.478L55.5842 62.4946C41.6845 62.4946 39.3836 70.7668 39.3836 70.7668H39.3981Z" fill="#00ADFF"/>
<path d="M115.015 62.4003H108.468V82.3377C105.993 80.083 103.032 78.7707 99.8379 78.7707H96.1289C87.4843 78.7707 80.48 88.3987 80.48 100.281C80.48 112.164 87.4843 121.792 96.1289 121.792H99.8379C103.336 121.792 106.559 120.211 109.165 117.551C110.058 119.03 111.72 120.023 113.621 120.023H120.248V67.439C120.248 64.6551 117.904 62.4003 115.008 62.4003H115.015ZM108.468 110.939C107.154 111.983 105.63 112.592 103.997 112.592H101.877C96.9346 112.592 92.9207 107.082 92.9207 100.281C92.9207 93.4809 96.9273 87.9709 101.877 87.9709H103.997C105.63 87.9709 107.154 88.5799 108.468 89.6239V110.931V110.939Z" fill="#00ADFF"/>
<path d="M67.1539 78.8577H61.7827V115.397C61.7827 118.877 64.6062 121.698 68.0902 121.698H73.563V85.2522C73.563 81.7142 70.6959 78.8505 67.1539 78.8505V78.8577Z" fill="#00ADFF"/>
<path d="M67.6765 62.4003C63.9167 62.4003 60.8682 65.4453 60.8682 69.2008C60.8682 72.9563 63.9167 76.0012 67.6765 76.0012C71.4363 76.0012 74.4848 72.9563 74.4848 69.2008C74.4848 65.4453 71.4363 62.4003 67.6765 62.4003Z" fill="#00ADFF"/>
<path d="M159.988 84.8969C156.852 80.8659 152.228 78.8505 146.124 78.8505C143.068 78.8505 140.361 79.3362 138.009 80.3005C135.65 81.2647 133.654 82.6567 132.021 84.4837C130.388 86.3034 129.14 88.4856 128.283 91.0231C127.427 93.5606 126.999 96.4026 126.999 99.5491C126.999 114.339 133.589 121.734 146.77 121.734C151.002 121.734 154.645 120.603 157.701 118.341C161.78 115.296 159.69 108.655 154.653 108.655H153.361C152.983 110.09 152.141 111.207 150.828 112.004C149.514 112.809 148.004 113.208 146.284 113.208C143.714 113.208 141.631 112.294 140.056 110.475C138.474 108.655 137.603 106.197 137.443 103.109H164.691C164.691 94.9961 163.123 88.9279 159.988 84.8969ZM137.763 96.3228C137.973 93.5099 138.851 91.3131 140.376 89.7399C141.9 88.1666 143.714 87.3764 145.798 87.3764C146.814 87.3764 147.808 87.5577 148.773 87.9129C149.739 88.2754 150.595 88.8264 151.343 89.5659C152.091 90.3126 152.693 91.2479 153.15 92.3789C153.608 93.5099 153.862 94.8221 153.912 96.3083H137.755L137.763 96.3228Z" fill="#00ADFF"/>
<path d="M229.537 108.662H228.245C227.868 110.098 227.026 111.214 225.712 112.012C224.398 112.816 222.888 113.215 221.168 113.215C218.599 113.215 216.516 112.302 214.941 110.482C213.358 108.662 212.487 106.205 212.328 103.116H239.575C239.575 95.0034 238.007 88.9351 234.872 84.9042C231.736 80.8732 227.113 78.8577 221.008 78.8577C217.953 78.8577 215.245 79.3435 212.894 80.3077C210.535 81.2719 208.539 82.6639 206.906 84.4909C205.272 86.3107 204.024 88.4929 203.168 91.0304C202.311 93.5679 201.883 96.4099 201.883 99.5563C201.883 114.346 208.473 121.741 221.654 121.741C225.886 121.741 229.53 120.61 232.585 118.348C236.665 115.303 234.574 108.662 229.537 108.662ZM215.267 89.7471C216.791 88.1739 218.606 87.3837 220.689 87.3837C221.705 87.3837 222.7 87.5649 223.665 87.9202C224.63 88.2826 225.487 88.8336 226.234 89.5731C226.982 90.3199 227.584 91.2551 228.042 92.3861C228.499 93.5171 228.753 94.8294 228.804 96.3156H212.647C212.857 93.5026 213.736 91.3059 215.26 89.7326L215.267 89.7471Z" fill="#00ADFF"/>
<path d="M195.851 80.2932C192.237 79.1187 188.419 79.2057 184.405 80.5542C183.49 80.8587 182.627 81.1922 181.806 81.5547C180.906 79.9597 179.201 78.8795 177.241 78.8795H170.694V116.572C170.694 119.414 173.002 121.719 175.847 121.719H182.474V91.8206C183.447 90.4141 184.84 89.3991 186.662 88.7829C188.288 88.2392 189.849 88.1304 191.351 88.4784C192.853 88.8192 194.008 89.6094 194.82 90.8491L196.047 90.4359C200.823 88.8337 200.685 81.8737 195.844 80.286L195.851 80.2932Z" fill="#00ADFF"/>
<path d="M250.905 120.784C250.296 121.393 249.555 121.705 248.691 121.705C247.828 121.705 247.087 121.4 246.485 120.784C245.882 120.175 245.578 119.436 245.578 118.573C245.578 117.71 245.882 116.978 246.492 116.369C247.102 115.76 247.835 115.463 248.691 115.463C249.548 115.463 250.296 115.767 250.905 116.369C251.515 116.971 251.82 117.71 251.82 118.573C251.82 119.436 251.515 120.175 250.905 120.784ZM246.797 116.673C246.274 117.195 246.013 117.833 246.013 118.573C246.013 119.312 246.274 119.958 246.79 120.487C247.312 121.016 247.944 121.277 248.691 121.277C249.439 121.277 250.071 121.016 250.593 120.487C251.116 119.958 251.377 119.32 251.377 118.573C251.377 117.826 251.116 117.195 250.593 116.673C250.071 116.144 249.432 115.883 248.691 115.883C247.951 115.883 247.32 116.144 246.797 116.673ZM248.633 116.847C249.062 116.847 249.374 116.891 249.57 116.971C249.925 117.116 250.1 117.406 250.1 117.841C250.1 118.145 249.991 118.37 249.766 118.515C249.65 118.595 249.483 118.645 249.272 118.682C249.541 118.725 249.737 118.834 249.86 119.015C249.983 119.196 250.049 119.37 250.049 119.544V119.798C250.049 119.878 250.049 119.965 250.056 120.052C250.056 120.139 250.071 120.204 250.085 120.233L250.107 120.277H249.541V120.24C249.541 120.24 249.526 120.219 249.526 120.204L249.512 120.095V119.827C249.512 119.436 249.403 119.167 249.185 119.044C249.054 118.972 248.837 118.935 248.51 118.935H248.031V120.284H247.429V116.862H248.626L248.633 116.847ZM249.287 117.384C249.134 117.297 248.887 117.253 248.554 117.253H248.038V118.493H248.583C248.837 118.493 249.033 118.464 249.156 118.413C249.396 118.319 249.512 118.138 249.512 117.877C249.512 117.63 249.439 117.464 249.287 117.377V117.384Z" fill="#00ADFF"/>
<path d="M283.64 61.4143C279.213 53.3814 272.557 46.7332 264.515 42.3107C257.619 38.519 249.7 36.3513 241.281 36.3513V48.2702C261.35 48.2702 277.674 64.5753 277.674 84.6214H289.607C289.607 76.2187 287.436 68.309 283.64 61.4143Z" fill="#00ADFF"/>
<path d="M283.64 23.2071C288.068 31.24 294.724 37.8882 302.766 42.3107C309.661 46.1024 317.58 48.2702 326 48.2702V36.3513C305.93 36.3513 289.607 20.0461 289.607 0H277.674C277.674 8.40269 279.844 16.3124 283.64 23.2071Z" fill="#00ADFF"/>
<path d="M301.503 43.0575C294.455 47.2189 288.561 53.1059 284.395 60.1528C284.518 60.3703 284.656 60.5733 284.772 60.7908C287.603 65.9311 289.476 71.557 290.34 77.3497C293.243 63.1253 304.493 51.9024 318.741 49.0097C312.935 48.1469 307.295 46.2837 302.142 43.449C301.924 43.3257 301.721 43.188 301.503 43.0647V43.0575Z" fill="#00ADFF"/>
<path d="M265.777 41.5567C272.825 37.3952 278.719 31.5083 282.892 24.4686C282.769 24.2511 282.631 24.0481 282.508 23.8306C279.67 18.6831 277.804 13.0499 276.941 7.24995C274.045 21.4744 262.809 32.7118 248.568 35.619C254.367 36.4818 260 38.345 265.139 41.1797C265.356 41.2957 265.56 41.4407 265.777 41.5567Z" fill="#00ADFF"/>
<path d="M45.5316 139.54C45.2703 139.199 44.9437 138.945 44.5445 138.757C44.1453 138.576 43.7316 138.481 43.3033 138.481C42.7807 138.481 42.3089 138.576 41.8879 138.771C41.467 138.967 41.104 139.235 40.8065 139.576C40.5016 139.917 40.2693 140.308 40.1097 140.772C39.9427 141.229 39.8629 141.715 39.8629 142.237C39.8629 142.723 39.9427 143.179 40.0951 143.614C40.2548 144.049 40.4798 144.426 40.7702 144.76C41.0678 145.093 41.4234 145.347 41.8517 145.543C42.2799 145.731 42.7589 145.833 43.2961 145.833C43.8332 145.833 44.2904 145.724 44.6897 145.507C45.0889 145.289 45.43 144.985 45.7058 144.6L46.7655 145.391C46.7002 145.485 46.5768 145.623 46.4026 145.804C46.2284 145.985 46.0034 146.159 45.7131 146.34C45.43 146.514 45.0816 146.674 44.6751 146.812C44.2687 146.949 43.8041 147.015 43.2743 147.015C42.5412 147.015 41.8807 146.877 41.3 146.594C40.7121 146.319 40.2113 145.949 39.7975 145.499C39.3838 145.05 39.0717 144.535 38.854 143.97C38.6362 143.404 38.5273 142.824 38.5273 142.244C38.5273 141.534 38.6435 140.874 38.883 140.272C39.1153 139.67 39.4491 139.148 39.8701 138.706C40.2911 138.264 40.7992 137.923 41.3871 137.684C41.975 137.445 42.6283 137.321 43.3396 137.321C43.9493 137.321 44.5445 137.437 45.1324 137.677C45.7203 137.909 46.1994 138.271 46.5696 138.757L45.5244 139.547L45.5316 139.54Z" fill="#00ADFF"/>
<path d="M51.6724 137.546H52.928V145.594H57.1669V146.768H51.6796V137.546H51.6724Z" fill="#00ADFF"/>
<path d="M62.9442 135.146H64.6136L62.6684 137.024H61.5869L62.9442 135.146ZM61.8264 137.539H63.0821V146.761H61.8264V137.539Z" fill="#00ADFF"/>
<path d="M68.8379 137.546H70.4783L75.5664 145.122H75.5881V137.546H76.8438V146.768H75.2542L70.1226 139.192H70.0936V146.768H68.8379V137.546Z" fill="#00ADFF"/>
<path d="M82.6069 137.546H83.8626V146.768H82.6069V137.546Z" fill="#00ADFF"/>
<path d="M96.0424 139.54C95.7811 139.199 95.4544 138.945 95.0552 138.757C94.656 138.568 94.2423 138.481 93.8141 138.481C93.2915 138.481 92.8197 138.576 92.3987 138.771C91.9777 138.967 91.6148 139.235 91.3172 139.576C91.0123 139.917 90.7801 140.308 90.6204 140.772C90.4535 141.229 90.3736 141.715 90.3736 142.237C90.3736 142.723 90.4535 143.179 90.6059 143.614C90.7656 144.049 90.9906 144.426 91.2809 144.76C91.5785 145.093 91.9342 145.347 92.3624 145.543C92.7906 145.731 93.2697 145.833 93.8068 145.833C94.3439 145.833 94.8012 145.724 95.2004 145.507C95.5996 145.289 95.9407 144.985 96.2166 144.6L97.2763 145.391C97.211 145.485 97.0876 145.623 96.9134 145.804C96.7392 145.985 96.5142 146.159 96.2238 146.34C95.9408 146.514 95.5923 146.674 95.1859 146.812C94.7794 146.949 94.3149 147.015 93.785 147.015C93.0519 147.015 92.3914 146.877 91.8108 146.594C91.2228 146.319 90.722 145.949 90.3083 145.499C89.8946 145.05 89.5825 144.535 89.3647 143.97C89.147 143.404 89.0381 142.824 89.0381 142.244C89.0381 141.534 89.1542 140.874 89.3937 140.272C89.626 139.67 89.9599 139.148 90.3809 138.706C90.8019 138.264 91.3099 137.923 91.8979 137.684C92.4858 137.445 93.139 137.321 93.8504 137.321C94.4601 137.321 95.0552 137.437 95.6432 137.677C96.2311 137.909 96.7101 138.271 97.0803 138.757L96.0351 139.547L96.0424 139.54Z" fill="#00ADFF"/>
<path d="M105.079 137.546H106.211L110.16 146.768H108.701L107.772 144.492H103.38L102.466 146.768H101.007L105.071 137.546H105.079ZM107.322 143.397L105.601 139.163H105.572L103.823 143.397H107.314H107.322Z" fill="#00ADFF"/>
<path d="M121.555 137.546H124.778C125.431 137.546 126.005 137.619 126.491 137.771C126.977 137.916 127.405 138.112 127.768 138.365C128.131 138.612 128.429 138.895 128.668 139.214C128.908 139.54 129.097 139.866 129.234 140.207C129.372 140.548 129.474 140.881 129.532 141.222C129.59 141.563 129.626 141.874 129.626 142.157C129.626 142.744 129.518 143.317 129.3 143.868C129.082 144.419 128.763 144.905 128.334 145.34C127.913 145.768 127.384 146.116 126.752 146.377C126.121 146.637 125.395 146.768 124.567 146.768H121.555V137.546ZM122.811 145.594H124.386C124.916 145.594 125.417 145.521 125.888 145.376C126.36 145.231 126.781 145.014 127.13 144.731C127.485 144.448 127.768 144.086 127.979 143.658C128.182 143.23 128.291 142.73 128.291 142.15C128.291 141.86 128.24 141.512 128.146 141.113C128.051 140.714 127.87 140.337 127.601 139.989C127.34 139.634 126.97 139.33 126.498 139.083C126.026 138.837 125.424 138.713 124.676 138.713H122.796V145.586L122.811 145.594Z" fill="#00ADFF"/>
<path d="M134.809 137.546H140.768V138.721H136.065V141.468H140.442V142.643H136.065V145.601H141.008V146.775H134.816V137.553L134.809 137.546Z" fill="#00ADFF"/>
<path d="M157.411 147C156.707 147 156.061 146.877 155.473 146.63C154.878 146.384 154.377 146.043 153.956 145.608C153.536 145.173 153.202 144.658 152.969 144.071C152.73 143.484 152.606 142.839 152.606 142.157C152.606 141.476 152.723 140.838 152.969 140.243C153.209 139.656 153.536 139.141 153.956 138.706C154.377 138.271 154.886 137.93 155.473 137.684C156.061 137.437 156.707 137.314 157.411 137.314C158.116 137.314 158.761 137.437 159.357 137.684C159.945 137.93 160.453 138.271 160.874 138.706C161.295 139.141 161.629 139.656 161.868 140.243C162.108 140.838 162.224 141.476 162.224 142.157C162.224 142.839 162.108 143.484 161.868 144.071C161.629 144.658 161.295 145.173 160.874 145.608C160.453 146.043 159.945 146.384 159.357 146.63C158.769 146.877 158.116 147 157.411 147ZM157.411 145.826C157.941 145.826 158.42 145.731 158.849 145.536C159.277 145.34 159.64 145.079 159.945 144.745C160.249 144.412 160.482 144.028 160.649 143.578C160.816 143.129 160.895 142.657 160.895 142.15C160.895 141.642 160.808 141.171 160.649 140.722C160.489 140.272 160.249 139.888 159.945 139.554C159.64 139.228 159.277 138.96 158.849 138.764C158.42 138.568 157.941 138.474 157.411 138.474C156.882 138.474 156.403 138.568 155.982 138.764C155.553 138.96 155.19 139.221 154.886 139.554C154.581 139.888 154.348 140.272 154.181 140.722C154.015 141.171 153.935 141.642 153.935 142.15C153.935 142.657 154.015 143.129 154.181 143.578C154.348 144.028 154.581 144.412 154.886 144.745C155.19 145.079 155.553 145.34 155.982 145.536C156.403 145.731 156.882 145.826 157.411 145.826Z" fill="#00ADFF"/>
<path d="M170.295 137.546H171.55V144.136C171.55 144.716 171.456 145.195 171.275 145.565C171.093 145.934 170.861 146.224 170.592 146.435C170.316 146.652 170.026 146.797 169.714 146.877C169.402 146.956 169.112 147 168.85 147C168.197 147 167.645 146.833 167.203 146.5C166.76 146.166 166.47 145.659 166.346 144.985L167.573 144.709C167.638 145.057 167.791 145.333 168.001 145.528C168.219 145.731 168.502 145.833 168.85 145.833C169.162 145.833 169.409 145.775 169.598 145.652C169.787 145.528 169.932 145.369 170.033 145.173C170.135 144.977 170.208 144.753 170.237 144.499C170.273 144.245 170.287 143.991 170.287 143.73V137.546H170.295Z" fill="#00ADFF"/>
<path d="M181.32 147C180.616 147 179.97 146.877 179.382 146.63C178.787 146.384 178.286 146.043 177.865 145.608C177.444 145.173 177.11 144.658 176.878 144.071C176.639 143.484 176.515 142.839 176.515 142.157C176.515 141.476 176.631 140.838 176.878 140.243C177.118 139.656 177.444 139.141 177.865 138.706C178.286 138.271 178.794 137.93 179.382 137.684C179.97 137.437 180.616 137.314 181.32 137.314C182.024 137.314 182.67 137.437 183.265 137.684C183.853 137.93 184.361 138.271 184.782 138.706C185.203 139.141 185.537 139.656 185.777 140.243C186.016 140.838 186.132 141.476 186.132 142.157C186.132 142.839 186.016 143.484 185.777 144.071C185.537 144.658 185.203 145.173 184.782 145.608C184.361 146.043 183.853 146.384 183.265 146.63C182.677 146.877 182.024 147 181.32 147ZM181.32 145.826C181.85 145.826 182.329 145.731 182.757 145.536C183.186 145.34 183.548 145.079 183.853 144.745C184.158 144.412 184.39 144.028 184.557 143.578C184.724 143.129 184.804 142.657 184.804 142.15C184.804 141.642 184.717 141.171 184.557 140.722C184.398 140.272 184.158 139.888 183.853 139.554C183.548 139.228 183.186 138.96 182.757 138.764C182.329 138.568 181.85 138.474 181.32 138.474C180.79 138.474 180.311 138.568 179.89 138.764C179.462 138.96 179.099 139.221 178.794 139.554C178.489 139.888 178.257 140.272 178.09 140.722C177.923 141.171 177.843 141.642 177.843 142.15C177.843 142.657 177.923 143.129 178.09 143.578C178.257 144.028 178.489 144.412 178.794 144.745C179.099 145.079 179.462 145.34 179.89 145.536C180.311 145.731 180.79 145.826 181.32 145.826Z" fill="#00ADFF"/>
<path d="M191.591 144.84C191.816 145.18 192.106 145.427 192.462 145.586C192.818 145.746 193.173 145.833 193.551 145.833C193.761 145.833 193.972 145.797 194.189 145.739C194.407 145.673 194.603 145.572 194.785 145.449C194.959 145.318 195.111 145.159 195.22 144.97C195.336 144.774 195.387 144.557 195.387 144.303C195.387 143.948 195.271 143.672 195.046 143.491C194.821 143.303 194.538 143.15 194.204 143.02C193.87 142.889 193.5 142.773 193.108 142.657C192.716 142.541 192.346 142.375 192.012 142.172C191.678 141.961 191.395 141.686 191.17 141.331C190.945 140.975 190.829 140.504 190.829 139.902C190.829 139.634 190.887 139.344 191.003 139.04C191.119 138.735 191.308 138.46 191.562 138.206C191.816 137.952 192.135 137.749 192.534 137.575C192.934 137.408 193.405 137.321 193.964 137.321C194.472 137.321 194.951 137.387 195.416 137.524C195.873 137.662 196.28 137.945 196.628 138.373L195.612 139.301C195.452 139.054 195.235 138.858 194.944 138.713C194.654 138.568 194.327 138.496 193.964 138.496C193.601 138.496 193.326 138.539 193.101 138.634C192.868 138.728 192.687 138.844 192.549 138.989C192.411 139.134 192.309 139.286 192.259 139.453C192.208 139.62 192.172 139.772 192.172 139.91C192.172 140.301 192.288 140.598 192.513 140.809C192.738 141.019 193.021 141.186 193.355 141.316C193.689 141.447 194.051 141.563 194.451 141.671C194.85 141.773 195.213 141.918 195.547 142.106C195.881 142.295 196.164 142.549 196.389 142.86C196.614 143.172 196.73 143.614 196.73 144.165C196.73 144.608 196.643 145.006 196.476 145.362C196.309 145.717 196.077 146.014 195.793 146.261C195.51 146.507 195.169 146.688 194.777 146.819C194.385 146.949 193.972 147.015 193.522 147.015C192.934 147.015 192.368 146.906 191.838 146.703C191.308 146.5 190.887 146.174 190.575 145.739L191.605 144.854L191.591 144.84Z" fill="#00ADFF"/>
</g>
<defs>
<clipPath id="clip0_60_92">
<rect width="326" height="147" fill="white"/>
</clipPath>
</defs>
</svg>
