<svg width="158" height="50" viewBox="0 0 158 50" fill="none" xmlns="http://www.w3.org/2000/svg">
<g clip-path="url(#clip0_210_3)">
<path d="M43.5806 34.0312V2.61172H47.7497V13.8131C48.6859 12.5985 49.824 11.703 51.1684 11.1268C52.5128 10.5505 53.9107 10.2603 55.3582 10.2603C57.4119 10.2603 59.1933 10.6915 60.7027 11.5579C62.212 12.4243 63.3914 13.6307 64.2368 15.177C65.0822 16.7233 65.5069 18.5308 65.5069 20.5953V34.027H61.3377V20.6451C61.3377 19.248 61.0202 18.0416 60.3851 17.026C59.7501 16.0103 58.9129 15.2268 57.8696 14.6795C56.8263 14.1323 55.717 13.8587 54.5417 13.8587C53.3664 13.8587 52.2612 14.124 51.2344 14.6547C50.2075 15.1853 49.3704 15.9522 48.7188 16.9555C48.0673 17.9587 47.7456 19.1568 47.7456 20.5539V34.0312H43.5806Z" fill="#1C4F9C"/>
<path d="M82.9878 34.5784C80.6331 34.5784 78.5506 34.0395 76.7361 32.9616C74.9216 31.8838 73.4907 30.4287 72.4308 28.5922C71.3751 26.7557 70.8473 24.6995 70.8473 22.4235C70.8473 20.1476 71.3751 18.0914 72.4308 16.2549C73.4865 14.4184 74.9216 12.9633 76.7361 11.8854C78.5465 10.8076 80.6331 10.2686 82.9878 10.2686C85.3425 10.2686 87.4333 10.8076 89.2601 11.8854C91.087 12.9633 92.5221 14.4225 93.5654 16.2549C94.6087 18.0914 95.1283 20.1476 95.1283 22.4235C95.1283 24.6995 94.6087 26.7557 93.5654 28.5922C92.5221 30.4287 91.0911 31.8879 89.2601 32.9616C87.4333 34.0395 85.3425 34.5784 82.9878 34.5784ZM83.0332 30.9842C84.6044 30.9842 85.9776 30.6028 87.157 29.8441C88.3364 29.0855 89.256 28.0615 89.92 26.7681C90.5839 25.4788 90.9179 24.0279 90.9179 22.4194C90.9179 20.8109 90.5839 19.3599 89.92 18.0707C89.256 16.7814 88.3364 15.7574 87.157 14.9988C85.9776 14.2401 84.6044 13.8587 83.0332 13.8587C81.4331 13.8587 80.0352 14.2401 78.8434 14.9988C77.6516 15.7574 76.7196 16.7814 76.0557 18.0707C75.3917 19.3599 75.0577 20.8109 75.0577 22.4194C75.0577 24.0279 75.3917 25.4788 76.0557 26.7681C76.7196 28.0574 77.6475 29.0813 78.8434 29.8441C80.0352 30.6028 81.4331 30.9842 83.0332 30.9842Z" fill="#1C4F9C"/>
<path d="M100.473 34.0312V2.61172H104.642V34.0312H100.473Z" fill="#1C4F9C"/>
<path d="M122.123 34.5784C119.768 34.5784 117.686 34.0395 115.871 32.9616C114.057 31.8838 112.626 30.4287 111.566 28.5922C110.51 26.7557 109.982 24.6995 109.982 22.4235C109.982 20.1476 110.51 18.0914 111.566 16.2549C112.622 14.4184 114.057 12.9633 115.871 11.8854C117.681 10.8076 119.768 10.2686 122.123 10.2686C124.478 10.2686 126.568 10.8076 128.395 11.8854C130.222 12.9633 131.657 14.4225 132.7 16.2549C133.744 18.0914 134.263 20.1476 134.263 22.4235C134.263 24.6995 133.744 26.7557 132.7 28.5922C131.657 30.4287 130.226 31.8879 128.395 32.9616C126.568 34.0395 124.478 34.5784 122.123 34.5784ZM122.168 30.9842C123.739 30.9842 125.113 30.6028 126.292 29.8441C127.471 29.0855 128.391 28.0615 129.055 26.7681C129.719 25.4788 130.053 24.0279 130.053 22.4194C130.053 20.8109 129.719 19.3599 129.055 18.0707C128.391 16.7814 127.471 15.7574 126.292 14.9988C125.113 14.2401 123.739 13.8587 122.168 13.8587C120.568 13.8587 119.17 14.2401 117.978 14.9988C116.787 15.7574 115.855 16.7814 115.191 18.0707C114.527 19.3599 114.193 20.8109 114.193 22.4194C114.193 24.0279 114.527 25.4788 115.191 26.7681C115.855 28.0574 116.782 29.0813 117.978 29.8441C119.17 30.6028 120.568 30.9842 122.168 30.9842Z" fill="#1C4F9C"/>
<path d="M139.29 34.0312V30.4328H150.342C151.068 30.4328 151.695 30.2753 152.223 29.9561C152.75 29.6368 153.15 29.2223 153.423 28.7041C153.695 28.19 153.831 27.6428 153.831 27.0666C153.831 26.5194 153.711 26.0136 153.468 25.541C153.225 25.0725 152.858 24.6911 152.359 24.401C151.86 24.1108 151.266 23.9698 150.569 23.9698H145.905C144.424 23.9698 143.134 23.7211 142.033 23.2195C140.932 22.7178 140.07 21.9841 139.451 21.0099C138.832 20.0398 138.523 18.8542 138.523 17.4571C138.523 16.2714 138.812 15.1812 139.385 14.1779C139.958 13.1747 140.758 12.3622 141.785 11.7403C142.812 11.1185 143.987 10.8076 145.319 10.8076H155.963V14.4059H145.728C144.791 14.4059 144.053 14.6961 143.509 15.2724C142.965 15.8486 142.692 16.5326 142.692 17.3203C142.692 18.0789 142.973 18.7381 143.53 19.3019C144.086 19.8657 144.882 20.1434 145.909 20.1434H150.35C152.012 20.1434 153.406 20.4087 154.54 20.9394C155.674 21.47 156.532 22.237 157.122 23.2402C157.711 24.2434 158.004 25.4705 158.004 26.9298C158.004 28.1734 157.703 29.3342 157.097 30.4121C156.491 31.4899 155.654 32.3646 154.581 33.0321C153.509 33.6995 152.264 34.0353 150.845 34.0353H139.29V34.0312Z" fill="#1C4F9C"/>
<path d="M76.5793 6.43811V2.61172H89.4003V6.43811H76.5793Z" fill="#1C4F9C"/>
<path d="M44.3394 42.8323C44.3394 42.7908 44.3517 42.7576 44.3806 42.7286C44.4095 42.6996 44.4425 42.6872 44.4837 42.6872H46.9044C46.9456 42.6872 46.9786 42.6996 47.0075 42.7286C47.0363 42.7576 47.0487 42.7908 47.0487 42.8323V43.508C47.0487 43.5494 47.0363 43.5826 47.0075 43.6116C46.9786 43.6406 46.9456 43.6531 46.9044 43.6531H45.2878V44.7019H46.6817C46.7229 44.7019 46.7559 44.7185 46.7848 44.7434C46.8136 44.7724 46.826 44.8056 46.826 44.847V45.5186C46.826 45.5601 46.8136 45.5932 46.7848 45.6222C46.7559 45.6513 46.7229 45.6637 46.6817 45.6637H45.2878V47.1188H47.1559C47.1972 47.1188 47.2302 47.1312 47.259 47.1603C47.2879 47.1893 47.3003 47.2224 47.3003 47.2639V47.9272C47.3003 47.9686 47.2879 48.0018 47.259 48.0308C47.2302 48.0599 47.1972 48.0723 47.1559 48.0723H44.4837C44.4425 48.0723 44.4095 48.0599 44.3806 48.0308C44.3517 48.0018 44.3394 47.9686 44.3394 47.9272V42.8323Z" fill="#1C4F9C"/>
<path d="M49.6797 45.8254C49.7705 45.8917 49.8653 45.9622 49.9602 46.0368C50.055 46.1114 50.1416 46.1944 50.22 46.2897C50.2983 46.3851 50.3643 46.4887 50.4138 46.6006C50.4633 46.7126 50.4921 46.8411 50.4921 46.9862C50.4921 47.123 50.4674 47.2639 50.4138 47.4007C50.3643 47.5375 50.2777 47.6578 50.1622 47.7614C50.0303 47.8899 49.89 47.9811 49.7498 48.0309C49.6096 48.0806 49.4282 48.1096 49.2137 48.1096C49.0076 48.1096 48.7931 48.0599 48.5622 47.9604C48.3312 47.8609 48.1209 47.7324 47.9271 47.5707C47.9024 47.5458 47.8859 47.5127 47.8817 47.4795C47.8776 47.4422 47.8859 47.409 47.9106 47.38L48.2611 46.8784C48.2859 46.8494 48.3189 46.8286 48.3519 46.8245C48.389 46.8203 48.422 46.8286 48.4591 46.8535C48.5746 46.9406 48.7024 47.0276 48.8344 47.1147C48.9663 47.2017 49.1106 47.2473 49.2715 47.2473C49.3498 47.2473 49.4199 47.2225 49.4818 47.1769C49.5436 47.1313 49.5766 47.0608 49.5766 46.9696C49.5766 46.9074 49.523 46.8328 49.4158 46.7416C49.3086 46.6504 49.1972 46.5675 49.0777 46.4845C48.8715 46.3519 48.6735 46.1861 48.4797 45.9912C48.3519 45.8627 48.257 45.7342 48.191 45.6098C48.1251 45.4855 48.0962 45.3362 48.0962 45.1662C48.0962 45.0129 48.1292 44.8719 48.1952 44.7517C48.2611 44.6273 48.3477 44.5237 48.455 44.4408C48.5622 44.3579 48.6859 44.2915 48.822 44.2501C48.9581 44.2045 49.1024 44.1837 49.2509 44.1837C49.5643 44.1837 49.8653 44.2625 50.154 44.4242C50.2241 44.4698 50.2447 44.5361 50.2076 44.6149L49.956 45.1372C49.9395 45.1745 49.9148 45.1994 49.8818 45.216C49.8488 45.2326 49.8158 45.2326 49.7787 45.216C49.6674 45.158 49.5725 45.1165 49.49 45.0875C49.4117 45.0585 49.3375 45.046 49.2632 45.046C49.2055 45.046 49.1519 45.0585 49.0983 45.0875C49.0447 45.1165 49.0158 45.1497 49.0158 45.1911C49.0158 45.2906 49.057 45.3694 49.1395 45.4316C49.2014 45.4813 49.2674 45.5352 49.3416 45.5891C49.4158 45.643 49.5354 45.7218 49.6797 45.8254Z" fill="#1C4F9C"/>
<path d="M50.7972 44.3703C50.7972 44.3288 50.8096 44.2957 50.8344 44.2667C50.8591 44.2376 50.8921 44.2252 50.9333 44.2252H51.4983V43.2178C51.4983 43.1764 51.5107 43.1432 51.5395 43.1142C51.5684 43.0852 51.6014 43.0727 51.6426 43.0727H52.2406C52.3354 43.0727 52.3849 43.1225 52.3849 43.2178V44.2252H53.0571C53.0983 44.2252 53.1313 44.2376 53.1561 44.2667C53.1808 44.2957 53.1932 44.3288 53.1932 44.3703V44.9424C53.1932 44.9838 53.1808 45.017 53.1561 45.0419C53.1313 45.0668 53.0983 45.0792 53.0571 45.0792H52.3849V47.9272C52.3849 48.0267 52.3354 48.0723 52.2406 48.0723H51.6426C51.6014 48.0723 51.5684 48.0599 51.5395 48.0309C51.5107 48.0018 51.4983 47.9687 51.4983 47.9272V45.0792H50.9333C50.8921 45.0792 50.8591 45.0668 50.8344 45.0419C50.8096 45.017 50.7972 44.9838 50.7972 44.9424V44.3703Z" fill="#1C4F9C"/>
<path d="M56.5582 44.2252C56.5994 44.2252 56.6324 44.2376 56.6613 44.2666C56.6901 44.2957 56.7025 44.3288 56.7025 44.3703V46.0327C56.7025 46.4472 56.6572 46.783 56.5664 47.04C56.4757 47.2971 56.3479 47.5085 56.1788 47.6702C56.0468 47.8028 55.8901 47.9065 55.7087 47.9769C55.5272 48.0474 55.3252 48.0847 55.0984 48.0847C54.62 48.0847 54.2406 47.9438 53.9643 47.6619C53.8158 47.5126 53.7045 47.3137 53.622 47.0691C53.5437 46.8245 53.5024 46.4845 53.5024 46.0534V44.3661C53.5024 44.2708 53.5519 44.221 53.6468 44.221H54.2447C54.3396 44.221 54.3891 44.2708 54.3891 44.3661V46.2068C54.3891 46.4058 54.4097 46.5674 54.4468 46.6918C54.4839 46.8162 54.5416 46.9074 54.6117 46.9696C54.7396 47.0939 54.9004 47.1561 55.0942 47.1561C55.1932 47.1561 55.2839 47.1395 55.3788 47.1064C55.4695 47.0732 55.552 47.0193 55.6221 46.9488C55.6798 46.8908 55.7211 46.8037 55.754 46.6794C55.787 46.555 55.8035 46.4016 55.8035 46.2109V44.3703C55.8035 44.2749 55.853 44.2252 55.9479 44.2252H56.5582Z" fill="#1C4F9C"/>
<path d="M59.9233 47.6992C59.7872 47.8028 59.6264 47.894 59.4532 47.9728C59.2759 48.0516 59.0985 48.093 58.9212 48.093C58.6573 48.093 58.4099 48.0433 58.1872 47.9479C57.9645 47.8526 57.7707 47.7158 57.6098 47.5375C57.449 47.3634 57.3212 47.1561 57.2304 46.9198C57.1397 46.6835 57.0944 46.4265 57.0944 46.1487C57.0944 45.8834 57.1438 45.6305 57.2387 45.3984C57.3335 45.1662 57.4696 44.959 57.6387 44.7807C57.8078 44.6024 58.0016 44.4656 58.2243 44.362C58.447 44.2584 58.6862 44.2086 58.9418 44.2086C59.1192 44.2086 59.2965 44.2459 59.4656 44.3205C59.6346 44.3952 59.7913 44.4905 59.9274 44.6024V42.4384C59.9274 42.397 59.9398 42.3638 59.9687 42.3389C59.9975 42.3141 60.0305 42.3016 60.0718 42.3016H60.6697C60.7109 42.3016 60.7439 42.3141 60.7728 42.3389C60.8017 42.3638 60.814 42.397 60.814 42.4384V47.9314C60.814 48.0308 60.7646 48.0764 60.6697 48.0764H60.0718C60.0305 48.0764 59.9975 48.064 59.9687 48.035C59.9398 48.006 59.9274 47.9728 59.9274 47.9314V47.6992H59.9233ZM58.014 46.1487C58.014 46.2938 58.0387 46.4265 58.0841 46.555C58.1294 46.6794 58.1913 46.7913 58.2738 46.8825C58.3521 46.9737 58.4511 47.0483 58.5666 47.1022C58.682 47.1561 58.8099 47.1851 58.946 47.1851C59.082 47.1851 59.2099 47.1561 59.3212 47.1022C59.4326 47.0442 59.5315 46.9696 59.6181 46.8742C59.7006 46.7789 59.7666 46.6711 59.812 46.5467C59.8573 46.4224 59.8821 46.2938 59.8821 46.1529C59.8821 46.0119 59.8573 45.8834 59.812 45.7632C59.7666 45.643 59.7006 45.5352 59.6181 45.444C59.5357 45.3528 59.4367 45.2782 59.3212 45.2243C59.2099 45.1704 59.082 45.1414 58.946 45.1414C58.814 45.1414 58.6903 45.1662 58.5789 45.2243C58.4676 45.2782 58.3686 45.3528 58.282 45.444C58.1995 45.5352 58.1336 45.643 58.0882 45.7632C58.0387 45.8834 58.014 46.0119 58.014 46.1487Z" fill="#1C4F9C"/>
<path d="M61.5769 43.1681C61.5769 43.0313 61.6264 42.911 61.7212 42.8157C61.8161 42.7203 61.9357 42.6706 62.0718 42.6706C62.2078 42.6706 62.3274 42.7203 62.4223 42.8157C62.5171 42.9152 62.5666 43.0313 62.5666 43.1681C62.5666 43.3049 62.5171 43.4251 62.4223 43.5163C62.3233 43.6116 62.2078 43.6572 62.0718 43.6572C61.9357 43.6572 61.8161 43.6116 61.7212 43.5163C61.6264 43.4251 61.5769 43.309 61.5769 43.1681ZM61.6305 44.3703C61.6305 44.3288 61.6429 44.2957 61.6676 44.2666C61.6924 44.2376 61.7254 44.2252 61.7666 44.2252H62.3728C62.414 44.2252 62.447 44.2376 62.4759 44.2666C62.5048 44.2957 62.5171 44.3288 62.5171 44.3703V47.9272C62.5171 47.9687 62.5048 48.0018 62.4759 48.0308C62.447 48.0599 62.414 48.0723 62.3728 48.0723H61.7666C61.7254 48.0723 61.6924 48.0599 61.6676 48.0308C61.6429 48.0018 61.6305 47.9687 61.6305 47.9272V44.3703Z" fill="#1C4F9C"/>
<path d="M63.1481 46.1488C63.1481 45.8751 63.1976 45.6223 63.2924 45.386C63.3914 45.1497 63.5192 44.9424 63.6883 44.7683C63.8532 44.5942 64.0512 44.4574 64.2739 44.3579C64.4966 44.2584 64.7399 44.2086 65.0038 44.2086C65.2636 44.2086 65.5069 44.2584 65.7296 44.3579C65.9523 44.4574 66.1461 44.5942 66.311 44.7683C66.476 44.9424 66.608 45.1497 66.7028 45.386C66.7976 45.6223 66.843 45.8751 66.843 46.1488C66.843 46.4224 66.7976 46.6752 66.7028 46.9115C66.608 47.1478 66.476 47.3551 66.311 47.5292C66.1461 47.7034 65.9481 47.8402 65.7255 47.9397C65.5028 48.0391 65.2595 48.0889 64.9997 48.0889C64.7399 48.0889 64.4966 48.0391 64.2698 47.9397C64.0429 47.8402 63.8491 47.7034 63.6842 47.5292C63.5192 47.3551 63.3872 47.1478 63.2924 46.9115C63.1934 46.6752 63.1481 46.4224 63.1481 46.1488ZM64.0759 46.1488C64.0759 46.2939 64.1007 46.4265 64.146 46.555C64.1914 46.6794 64.2574 46.7913 64.3357 46.8825C64.4182 46.9737 64.5131 47.0484 64.6285 47.1022C64.7399 47.1561 64.8636 47.1852 64.9955 47.1852C65.1275 47.1852 65.2512 47.1603 65.3667 47.1022C65.4821 47.0484 65.5811 46.9737 65.6636 46.8825C65.7461 46.7913 65.8079 46.6794 65.8533 46.555C65.8987 46.4307 65.9234 46.2939 65.9234 46.1488C65.9234 46.0037 65.8987 45.871 65.8533 45.7425C65.8079 45.6181 65.7419 45.5062 65.6636 45.415C65.5811 45.3238 65.4821 45.2492 65.3667 45.1953C65.2512 45.1414 65.1275 45.1124 64.9955 45.1124C64.8636 45.1124 64.7399 45.1372 64.6285 45.1953C64.5172 45.2492 64.4182 45.3238 64.3357 45.415C64.2533 45.5062 64.1914 45.6181 64.146 45.7425C64.0965 45.871 64.0759 46.0078 64.0759 46.1488Z" fill="#1C4F9C"/>
<path d="M69.0246 45.8254C69.1153 45.8917 69.2102 45.9622 69.305 46.0368C69.3998 46.1114 69.4865 46.1944 69.5648 46.2897C69.6432 46.3851 69.7091 46.4887 69.7586 46.6006C69.8081 46.7126 69.837 46.8411 69.837 46.9862C69.837 47.123 69.8122 47.2639 69.7586 47.4007C69.7091 47.5375 69.6225 47.6578 69.5071 47.7614C69.3751 47.8899 69.2349 47.9811 69.0947 48.0309C68.9545 48.0806 68.773 48.1096 68.5586 48.1096C68.3524 48.1096 68.138 48.0599 67.907 47.9604C67.6761 47.8609 67.4658 47.7324 67.272 47.5707C67.2472 47.5458 67.2307 47.5127 67.2266 47.4795C67.2225 47.4422 67.2307 47.409 67.2555 47.38L67.606 46.8784C67.6307 46.8494 67.6637 46.8286 67.6967 46.8245C67.7338 46.8203 67.7668 46.8286 67.8039 46.8535C67.9194 46.9406 68.0472 47.0276 68.1792 47.1147C68.3112 47.2017 68.4555 47.2473 68.6163 47.2473C68.6947 47.2473 68.7648 47.2225 68.8266 47.1769C68.8885 47.1313 68.9215 47.0608 68.9215 46.9696C68.9215 46.9074 68.8679 46.8328 68.7607 46.7416C68.6534 46.6504 68.5421 46.5675 68.4225 46.4845C68.2163 46.3519 68.0184 46.1861 67.8246 45.9912C67.6967 45.8627 67.6019 45.7342 67.5359 45.6098C67.4699 45.4855 67.441 45.3362 67.441 45.1662C67.441 45.0129 67.474 44.8719 67.54 44.7517C67.606 44.6273 67.6926 44.5237 67.7998 44.4408C67.907 44.3579 68.0307 44.2915 68.1668 44.2501C68.3029 44.2045 68.4472 44.1837 68.5957 44.1837C68.9091 44.1837 69.2102 44.2625 69.4988 44.4242C69.5689 44.4698 69.5895 44.5361 69.5524 44.6149L69.3009 45.1372C69.2844 45.1745 69.2596 45.1994 69.2266 45.216C69.1937 45.2326 69.1607 45.2326 69.1236 45.216C69.0122 45.158 68.9174 45.1165 68.8349 45.0875C68.7565 45.0585 68.6823 45.046 68.6081 45.046C68.5503 45.046 68.4967 45.0585 68.4431 45.0875C68.3895 45.1165 68.3606 45.1497 68.3606 45.1911C68.3606 45.2906 68.4019 45.3694 68.4844 45.4316C68.5462 45.4813 68.6122 45.5352 68.6864 45.5891C68.7607 45.643 68.8803 45.7218 69.0246 45.8254Z" fill="#1C4F9C"/>
<path d="M73.7216 49.8549C73.6804 49.9503 73.6185 50 73.5319 50H72.8886C72.8309 50 72.7896 49.9793 72.7649 49.942C72.7401 49.9047 72.7401 49.859 72.7649 49.8052L73.6927 47.6121L72.3814 44.4242C72.3607 44.3744 72.3649 44.3247 72.3896 44.2874C72.4144 44.2459 72.4556 44.2252 72.5133 44.2252H73.1855C73.2474 44.2252 73.301 44.2749 73.3463 44.3786L74.2123 46.468L75.0948 44.3744C75.132 44.2791 75.1773 44.2293 75.2392 44.2293H75.9155C75.9732 44.2293 76.0144 44.2501 76.0433 44.2915C76.0722 44.333 76.0722 44.3786 76.0474 44.4283L73.7216 49.8549Z" fill="#1C4F9C"/>
<path d="M79.1609 42.8323C79.1609 42.7908 79.1733 42.7576 79.2021 42.7286C79.231 42.6996 79.264 42.6872 79.3052 42.6872H80.8517C81.2187 42.6872 81.5609 42.7535 81.8744 42.8862C82.1878 43.0188 82.4599 43.2054 82.6909 43.4458C82.9218 43.6863 83.1033 43.9682 83.2352 44.2957C83.3672 44.6232 83.4332 44.988 83.4332 45.3818C83.4332 45.7756 83.3672 46.1404 83.2352 46.4679C83.1033 46.7954 82.9218 47.0815 82.6909 47.3178C82.4599 47.5541 82.1878 47.7448 81.8744 47.8774C81.5609 48.0101 81.2187 48.0764 80.8517 48.0764H79.3052C79.264 48.0764 79.231 48.064 79.2021 48.035C79.1733 48.006 79.1609 47.9728 79.1609 47.9313V42.8323ZM80.1176 43.6324V47.1271H80.8764C81.1073 47.1271 81.3135 47.0815 81.5032 46.9944C81.6929 46.9074 81.8537 46.7872 81.9898 46.6338C82.1259 46.4804 82.229 46.298 82.3032 46.0824C82.3775 45.871 82.4146 45.6347 82.4146 45.3777C82.4146 45.1248 82.3775 44.8926 82.3032 44.677C82.229 44.4615 82.1259 44.2749 81.9898 44.1215C81.8537 43.9682 81.6929 43.8479 81.5032 43.7609C81.3135 43.6738 81.1032 43.6282 80.8764 43.6282H80.1176V43.6324Z" fill="#1C4F9C"/>
<path d="M84.0105 43.1681C84.0105 43.0313 84.06 42.911 84.1548 42.8157C84.2497 42.7203 84.3693 42.6706 84.5054 42.6706C84.6414 42.6706 84.761 42.7203 84.8559 42.8157C84.9507 42.9152 85.0002 43.0313 85.0002 43.1681C85.0002 43.3049 84.9507 43.4251 84.8559 43.5163C84.7569 43.6116 84.6414 43.6572 84.5054 43.6572C84.3693 43.6572 84.2497 43.6116 84.1548 43.5163C84.0559 43.4251 84.0105 43.309 84.0105 43.1681ZM84.0641 44.3703C84.0641 44.3288 84.0765 44.2957 84.1012 44.2666C84.126 44.2376 84.159 44.2252 84.2002 44.2252H84.8064C84.8476 44.2252 84.8806 44.2376 84.9095 44.2666C84.9384 44.2957 84.9507 44.3288 84.9507 44.3703V47.9272C84.9507 47.9687 84.9384 48.0018 84.9095 48.0308C84.8806 48.0599 84.8476 48.0723 84.8064 48.0723H84.2002C84.159 48.0723 84.126 48.0599 84.1012 48.0308C84.0765 48.0018 84.0641 47.9687 84.0641 47.9272V44.3703Z" fill="#1C4F9C"/>
<path d="M88.423 47.6992C88.2869 47.8028 88.1261 47.8941 87.9488 47.9728C87.7714 48.0516 87.59 48.093 87.4127 48.093C87.1487 48.093 86.9013 48.0433 86.6786 47.9479C86.4559 47.8526 86.2621 47.7158 86.1013 47.5375C85.9405 47.3634 85.8126 47.1561 85.7219 46.9198C85.6312 46.6835 85.5858 46.4265 85.5858 46.1488C85.5858 45.8834 85.6353 45.6306 85.7302 45.3984C85.825 45.1663 85.9611 44.959 86.1302 44.7807C86.2992 44.6024 86.4931 44.4656 86.7157 44.362C86.9384 44.2584 87.1776 44.2086 87.4333 44.2086C87.6106 44.2086 87.7879 44.2501 87.9611 44.3288C88.1343 44.4076 88.291 44.4988 88.4271 44.6024V44.3703C88.4271 44.3288 88.4395 44.2957 88.4684 44.2667C88.4972 44.2376 88.5302 44.2252 88.5715 44.2252H89.1694C89.2643 44.2252 89.3138 44.2749 89.3138 44.3703V47.9272C89.3138 48.0267 89.2643 48.0723 89.1694 48.0723H88.5715C88.5302 48.0723 88.4972 48.0599 88.4684 48.0309C88.4395 48.0018 88.4271 47.9687 88.4271 47.9272V47.6992H88.423ZM86.5054 46.1488C86.5054 46.2856 86.5302 46.4182 86.5838 46.5384C86.6333 46.6587 86.7034 46.7664 86.79 46.8577C86.8766 46.9489 86.9797 47.0235 87.091 47.0774C87.2065 47.1313 87.3261 47.1603 87.4539 47.1603C87.59 47.1603 87.7178 47.1354 87.8292 47.0774C87.9405 47.0235 88.0395 46.9489 88.1261 46.8577C88.2086 46.7664 88.2745 46.6587 88.3199 46.5384C88.3653 46.4182 88.39 46.2897 88.39 46.1488C88.39 46.0078 88.3653 45.8793 88.3199 45.7591C88.2745 45.6388 88.2086 45.5311 88.1261 45.4399C88.0436 45.3487 87.9446 45.274 87.8292 45.2201C87.7178 45.1663 87.59 45.1372 87.4539 45.1372C87.3261 45.1372 87.2065 45.1621 87.091 45.2201C86.9755 45.274 86.8766 45.3487 86.79 45.4399C86.7034 45.5311 86.6333 45.6388 86.5838 45.7591C86.5302 45.8834 86.5054 46.012 86.5054 46.1488Z" fill="#1C4F9C"/>
<path d="M90.819 48.7066C90.8478 48.6776 90.885 48.661 90.9262 48.6651C90.9674 48.6693 91.0045 48.6859 91.0334 48.7232C91.1159 48.8351 91.2231 48.9263 91.3633 48.9926C91.4994 49.059 91.6437 49.0921 91.7922 49.0921C91.9242 49.0921 92.0479 49.0673 92.1633 49.0092C92.2788 48.9553 92.3778 48.8848 92.4644 48.7978C92.5427 48.7149 92.6005 48.6029 92.6499 48.462C92.6953 48.321 92.7201 48.1428 92.7201 47.9355V47.6951C92.5757 47.7987 92.419 47.8899 92.2458 47.9687C92.0726 48.0474 91.8994 48.0889 91.7262 48.0889C91.4623 48.0889 91.2149 48.0391 90.9922 47.9438C90.7695 47.8484 90.5715 47.7116 90.4107 47.5334C90.2458 47.3593 90.1179 47.152 90.0272 46.9157C89.9365 46.6794 89.8911 46.4224 89.8911 46.1446C89.8911 45.8669 89.9365 45.6098 90.0272 45.3735C90.1179 45.1372 90.2458 44.9341 90.4107 44.76C90.5757 44.5859 90.7654 44.4532 90.9881 44.3537C91.2107 44.2542 91.4499 44.2045 91.7138 44.2045C91.8788 44.2045 92.052 44.2418 92.2334 44.3164C92.4149 44.391 92.5798 44.4864 92.7242 44.5983V44.3661C92.7242 44.3247 92.7365 44.2915 92.7654 44.2625C92.7943 44.2335 92.8273 44.2211 92.8685 44.2211H93.4665C93.5613 44.2211 93.6108 44.2708 93.6108 44.3661V47.5002C93.6108 47.7738 93.5984 48.0101 93.5819 48.2091C93.5613 48.4081 93.5283 48.5864 93.483 48.7397C93.4376 48.8931 93.3799 49.0299 93.3098 49.146C93.2397 49.2621 93.1572 49.3699 93.0623 49.4652C92.8933 49.6352 92.7036 49.7637 92.4932 49.8591C92.2829 49.9503 92.052 49.9959 91.8004 49.9959C91.5241 49.9959 91.2602 49.9378 91.0087 49.8217C90.7571 49.7057 90.5468 49.5481 90.3777 49.3492C90.353 49.3243 90.3406 49.2911 90.3447 49.2538C90.3489 49.2165 90.3612 49.1833 90.386 49.1585L90.819 48.7066ZM90.8025 46.1405C90.8025 46.2856 90.8272 46.4182 90.8726 46.5467C90.9179 46.6711 90.9839 46.783 91.0623 46.8784C91.1448 46.9737 91.2437 47.0483 91.3551 47.1022C91.4705 47.1561 91.5984 47.1852 91.7427 47.1852C91.8912 47.1852 92.0231 47.1603 92.1427 47.1022C92.2623 47.0483 92.3572 46.9737 92.4396 46.8825C92.518 46.7913 92.5798 46.6794 92.6211 46.555C92.6623 46.4307 92.6829 46.2938 92.6829 46.1488C92.6829 46.0119 92.6582 45.8793 92.6128 45.7591C92.5675 45.6388 92.5015 45.5311 92.419 45.4399C92.3365 45.3487 92.2334 45.274 92.1221 45.2201C92.0066 45.1662 91.8829 45.1372 91.7427 45.1372C91.4664 45.1372 91.2437 45.2326 91.0705 45.4233C90.8891 45.614 90.8025 45.8544 90.8025 46.1405Z" fill="#1C4F9C"/>
<path d="M95.2644 47.9272C95.2644 48.0267 95.2149 48.0723 95.1201 48.0723H94.5221C94.4809 48.0723 94.4479 48.0599 94.419 48.0309C94.3902 48.0018 94.3778 47.9687 94.3778 47.9272V44.3703C94.3778 44.3288 94.3902 44.2957 94.419 44.2667C94.4479 44.2376 94.4809 44.2252 94.5221 44.2252H95.1201C95.2191 44.2252 95.2644 44.2749 95.2644 44.3703V44.6563C95.4129 44.532 95.582 44.4283 95.7758 44.3413C95.9696 44.2542 96.1634 44.2086 96.349 44.2086C96.5263 44.2086 96.6954 44.2418 96.848 44.304C97.0006 44.3662 97.1325 44.4574 97.2439 44.5734C97.3552 44.6895 97.4377 44.8222 97.4995 44.9756C97.5614 45.1289 97.5903 45.2989 97.5903 45.4855V47.9272C97.5903 48.0267 97.5408 48.0723 97.4459 48.0723H96.848C96.8067 48.0723 96.7737 48.0599 96.7449 48.0309C96.716 48.0018 96.7036 47.9687 96.7036 47.9272V45.7798C96.7036 45.5684 96.6542 45.4067 96.5593 45.2906C96.4603 45.1745 96.3242 45.1165 96.1469 45.1165C96.0356 45.1165 95.9242 45.1372 95.8211 45.1828C95.718 45.2284 95.6232 45.2865 95.5448 45.3611C95.4665 45.4357 95.4005 45.5228 95.3552 45.6264C95.3057 45.7301 95.2809 45.8378 95.2809 45.9498L95.2644 47.9272Z" fill="#1C4F9C"/>
<path d="M97.9738 46.1488C97.9738 45.8751 98.0232 45.6223 98.1181 45.386C98.2171 45.1497 98.3449 44.9424 98.514 44.7683C98.6789 44.5942 98.8769 44.4574 99.0996 44.3579C99.3222 44.2584 99.5655 44.2086 99.8295 44.2086C100.089 44.2086 100.333 44.2584 100.555 44.3579C100.778 44.4574 100.972 44.5942 101.137 44.7683C101.302 44.9424 101.434 45.1497 101.528 45.386C101.623 45.6223 101.669 45.8751 101.669 46.1488C101.669 46.4224 101.623 46.6752 101.528 46.9115C101.434 47.1478 101.302 47.3551 101.137 47.5292C100.972 47.7034 100.774 47.8402 100.551 47.9397C100.328 48.0391 100.085 48.0889 99.8254 48.0889C99.5656 48.0889 99.3222 48.0391 99.0954 47.9397C98.8686 47.8402 98.6748 47.7034 98.5099 47.5292C98.3449 47.3551 98.2129 47.1478 98.1181 46.9115C98.0232 46.6752 97.9738 46.4224 97.9738 46.1488ZM98.9016 46.1488C98.9016 46.2939 98.9264 46.4265 98.9717 46.555C99.0171 46.6794 99.0831 46.7913 99.1614 46.8825C99.2439 46.9737 99.3387 47.0484 99.4542 47.1022C99.5655 47.1561 99.6893 47.1852 99.8212 47.1852C99.9532 47.1852 100.077 47.1603 100.192 47.1022C100.308 47.0484 100.407 46.9737 100.489 46.8825C100.572 46.7913 100.634 46.6794 100.679 46.555C100.724 46.4307 100.749 46.2939 100.749 46.1488C100.749 46.0037 100.724 45.871 100.679 45.7425C100.634 45.6181 100.568 45.5062 100.489 45.415C100.407 45.3238 100.308 45.2492 100.192 45.1953C100.077 45.1414 99.9532 45.1124 99.8212 45.1124C99.6893 45.1124 99.5655 45.1372 99.4542 45.1953C99.3429 45.2492 99.2439 45.3238 99.1614 45.415C99.0789 45.5062 99.0171 45.6181 98.9717 45.7425C98.9264 45.871 98.9016 46.0078 98.9016 46.1488Z" fill="#1C4F9C"/>
<path d="M103.85 45.8254C103.941 45.8917 104.036 45.9622 104.131 46.0368C104.225 46.1114 104.312 46.1944 104.39 46.2897C104.469 46.3851 104.535 46.4887 104.584 46.6006C104.634 46.7126 104.663 46.8411 104.663 46.9862C104.663 47.123 104.638 47.2639 104.584 47.4007C104.535 47.5375 104.448 47.6578 104.333 47.7614C104.201 47.8899 104.06 47.9811 103.92 48.0309C103.78 48.0806 103.599 48.1096 103.384 48.1096C103.178 48.1096 102.964 48.0599 102.733 47.9604C102.502 47.8609 102.291 47.7324 102.098 47.5707C102.073 47.5458 102.056 47.5127 102.052 47.4795C102.048 47.4422 102.056 47.409 102.081 47.38L102.432 46.8784C102.456 46.8494 102.489 46.8286 102.522 46.8245C102.559 46.8203 102.592 46.8286 102.629 46.8535C102.745 46.9406 102.873 47.0276 103.005 47.1147C103.137 47.2017 103.281 47.2473 103.442 47.2473C103.52 47.2473 103.59 47.2225 103.652 47.1769C103.714 47.1313 103.747 47.0608 103.747 46.9696C103.747 46.9074 103.693 46.8328 103.586 46.7416C103.479 46.6504 103.368 46.5675 103.248 46.4845C103.042 46.3519 102.844 46.1861 102.65 45.9912C102.522 45.8627 102.427 45.7342 102.361 45.6098C102.295 45.4855 102.267 45.3362 102.267 45.1662C102.267 45.0129 102.3 44.8719 102.366 44.7517C102.432 44.6273 102.518 44.5237 102.625 44.4408C102.733 44.3579 102.856 44.2915 102.992 44.2501C103.128 44.2045 103.273 44.1837 103.421 44.1837C103.735 44.1837 104.036 44.2625 104.324 44.4242C104.394 44.4698 104.415 44.5361 104.378 44.6149L104.126 45.1372C104.11 45.1745 104.085 45.1994 104.052 45.216C104.019 45.2326 103.986 45.2326 103.949 45.216C103.838 45.158 103.743 45.1165 103.66 45.0875C103.582 45.0585 103.508 45.046 103.434 45.046C103.376 45.046 103.322 45.0585 103.269 45.0875C103.215 45.1165 103.186 45.1497 103.186 45.1911C103.186 45.2906 103.227 45.3694 103.31 45.4316C103.372 45.4813 103.438 45.5352 103.512 45.5891C103.586 45.643 103.71 45.7218 103.85 45.8254Z" fill="#1C4F9C"/>
<path d="M104.968 44.3703C104.968 44.3288 104.98 44.2957 105.005 44.2667C105.03 44.2376 105.063 44.2252 105.104 44.2252H105.669V43.2178C105.669 43.1764 105.681 43.1432 105.71 43.1142C105.739 43.0852 105.772 43.0727 105.813 43.0727H106.411C106.506 43.0727 106.555 43.1225 106.555 43.2178V44.2252H107.228C107.269 44.2252 107.302 44.2376 107.327 44.2667C107.351 44.2957 107.364 44.3288 107.364 44.3703V44.9424C107.364 44.9838 107.351 45.017 107.327 45.0419C107.302 45.0668 107.269 45.0792 107.228 45.0792H106.555V47.9272C106.555 48.0267 106.506 48.0723 106.411 48.0723H105.813C105.772 48.0723 105.739 48.0599 105.71 48.0309C105.681 48.0018 105.669 47.9687 105.669 47.9272V45.0792H105.104C105.063 45.0792 105.03 45.0668 105.005 45.0419C104.98 45.017 104.968 44.9838 104.968 44.9424V44.3703Z" fill="#1C4F9C"/>
<path d="M107.875 43.1681C107.875 43.0313 107.924 42.911 108.019 42.8157C108.114 42.7203 108.234 42.6706 108.37 42.6706C108.506 42.6706 108.626 42.7203 108.72 42.8157C108.815 42.9152 108.865 43.0313 108.865 43.1681C108.865 43.3049 108.815 43.4251 108.72 43.5163C108.621 43.6116 108.506 43.6572 108.37 43.6572C108.234 43.6572 108.114 43.6116 108.019 43.5163C107.92 43.4251 107.875 43.309 107.875 43.1681ZM107.929 44.3703C107.929 44.3288 107.941 44.2957 107.966 44.2666C107.99 44.2376 108.023 44.2252 108.065 44.2252H108.671C108.712 44.2252 108.745 44.2376 108.774 44.2666C108.803 44.2957 108.815 44.3288 108.815 44.3703V47.9272C108.815 47.9687 108.803 48.0018 108.774 48.0308C108.745 48.0599 108.712 48.0723 108.671 48.0723H108.065C108.023 48.0723 107.99 48.0599 107.966 48.0308C107.941 48.0018 107.929 47.9687 107.929 47.9272V44.3703Z" fill="#1C4F9C"/>
<path d="M112.032 45.3031C112.007 45.3404 111.974 45.3611 111.937 45.3652C111.9 45.3694 111.863 45.3611 111.826 45.3321C111.747 45.274 111.665 45.2284 111.574 45.1953C111.483 45.158 111.384 45.1414 111.277 45.1414C111.141 45.1414 111.017 45.1662 110.906 45.2243C110.795 45.2782 110.7 45.3528 110.621 45.444C110.543 45.5352 110.481 45.6471 110.436 45.7715C110.395 45.8959 110.37 46.0285 110.37 46.1695C110.37 46.3146 110.395 46.4472 110.444 46.5716C110.494 46.696 110.56 46.8038 110.642 46.895C110.725 46.9862 110.828 47.0608 110.943 47.1105C111.059 47.1603 111.186 47.1893 111.318 47.1893C111.442 47.1893 111.558 47.1644 111.669 47.1105C111.78 47.0608 111.871 46.9862 111.949 46.895C111.978 46.8659 112.015 46.8494 112.052 46.8535C112.09 46.8576 112.127 46.8701 112.156 46.895L112.601 47.3261C112.63 47.351 112.646 47.3841 112.642 47.4214C112.638 47.4588 112.626 47.4961 112.601 47.5251C112.436 47.6992 112.246 47.8402 112.028 47.9396C111.809 48.0433 111.57 48.093 111.314 48.093C111.05 48.093 110.803 48.0474 110.576 47.9521C110.349 47.8567 110.151 47.7241 109.982 47.5458C109.813 47.3717 109.681 47.1686 109.586 46.9323C109.492 46.7001 109.446 46.4431 109.446 46.1653C109.446 45.9125 109.492 45.672 109.582 45.4357C109.673 45.2036 109.797 44.9963 109.962 44.8139C110.127 44.6315 110.316 44.4905 110.539 44.3786C110.762 44.2667 111.009 44.2086 111.277 44.2045C111.648 44.2045 112.003 44.3247 112.341 44.5568C112.37 44.5776 112.391 44.6066 112.403 44.6398C112.411 44.6771 112.407 44.7102 112.378 44.7475L112.032 45.3031Z" fill="#1C4F9C"/>
<path d="M113.067 46.1488C113.067 45.8751 113.116 45.6223 113.211 45.386C113.31 45.1497 113.438 44.9424 113.607 44.7683C113.772 44.5942 113.97 44.4574 114.193 44.3579C114.415 44.2584 114.659 44.2086 114.923 44.2086C115.182 44.2086 115.426 44.2584 115.648 44.3579C115.871 44.4574 116.065 44.5942 116.23 44.7683C116.395 44.9424 116.527 45.1497 116.622 45.386C116.716 45.6223 116.762 45.8751 116.762 46.1488C116.762 46.4224 116.716 46.6752 116.622 46.9115C116.527 47.1478 116.395 47.3551 116.23 47.5292C116.065 47.7034 115.867 47.8402 115.644 47.9397C115.422 48.0391 115.178 48.0889 114.918 48.0889C114.659 48.0889 114.415 48.0391 114.189 47.9397C113.962 47.8402 113.768 47.7034 113.603 47.5292C113.438 47.3551 113.306 47.1478 113.211 46.9115C113.116 46.6752 113.067 46.4224 113.067 46.1488ZM113.995 46.1488C113.995 46.2939 114.02 46.4265 114.065 46.555C114.11 46.6794 114.176 46.7913 114.255 46.8825C114.337 46.9737 114.432 47.0484 114.547 47.1022C114.659 47.1561 114.782 47.1852 114.914 47.1852C115.046 47.1852 115.17 47.1603 115.286 47.1022C115.401 47.0484 115.5 46.9737 115.582 46.8825C115.665 46.7913 115.727 46.6794 115.772 46.555C115.817 46.4307 115.842 46.2939 115.842 46.1488C115.842 46.0037 115.817 45.871 115.772 45.7425C115.727 45.6181 115.661 45.5062 115.582 45.415C115.5 45.3238 115.401 45.2492 115.286 45.1953C115.17 45.1414 115.046 45.1124 114.914 45.1124C114.782 45.1124 114.659 45.1372 114.547 45.1953C114.436 45.2492 114.337 45.3238 114.255 45.415C114.172 45.5062 114.11 45.6181 114.065 45.7425C114.02 45.871 113.995 46.0078 113.995 46.1488Z" fill="#1C4F9C"/>
<path d="M118.943 45.8254C119.034 45.8917 119.129 45.9622 119.224 46.0368C119.319 46.1114 119.405 46.1944 119.484 46.2897C119.562 46.3851 119.628 46.4887 119.677 46.6006C119.727 46.7126 119.756 46.8411 119.756 46.9862C119.756 47.123 119.731 47.2639 119.677 47.4007C119.628 47.5375 119.541 47.6578 119.426 47.7614C119.294 47.8899 119.154 47.9811 119.014 48.0309C118.873 48.0806 118.692 48.1096 118.477 48.1096C118.271 48.1096 118.057 48.0599 117.826 47.9604C117.595 47.8609 117.385 47.7324 117.191 47.5707C117.166 47.5458 117.15 47.5127 117.145 47.4795C117.141 47.4422 117.15 47.409 117.174 47.38L117.525 46.8784C117.55 46.8494 117.583 46.8286 117.616 46.8245C117.653 46.8203 117.686 46.8286 117.723 46.8535C117.838 46.9406 117.966 47.0276 118.098 47.1147C118.23 47.2017 118.374 47.2473 118.535 47.2473C118.613 47.2473 118.684 47.2225 118.745 47.1769C118.807 47.1313 118.84 47.0608 118.84 46.9696C118.84 46.9074 118.787 46.8328 118.679 46.7416C118.572 46.6504 118.461 46.5675 118.341 46.4845C118.135 46.3519 117.937 46.1861 117.743 45.9912C117.616 45.8627 117.521 45.7342 117.455 45.6098C117.389 45.4855 117.36 45.3362 117.36 45.1662C117.36 45.0129 117.393 44.8719 117.459 44.7517C117.525 44.6273 117.611 44.5237 117.719 44.4408C117.826 44.3579 117.95 44.2915 118.086 44.2501C118.222 44.2045 118.366 44.1837 118.515 44.1837C118.828 44.1837 119.129 44.2625 119.418 44.4242C119.488 44.4698 119.508 44.5361 119.471 44.6149L119.22 45.1372C119.203 45.1745 119.178 45.1994 119.145 45.216C119.112 45.2326 119.079 45.2326 119.042 45.216C118.931 45.158 118.836 45.1165 118.754 45.0875C118.675 45.0585 118.601 45.046 118.527 45.046C118.469 45.046 118.416 45.0585 118.362 45.0875C118.308 45.1165 118.279 45.1497 118.279 45.1911C118.279 45.2906 118.321 45.3694 118.403 45.4316C118.465 45.4813 118.531 45.5352 118.605 45.5891C118.679 45.643 118.799 45.7218 118.943 45.8254Z" fill="#1C4F9C"/>
<path d="M127.608 47.8733C127.632 47.9231 127.632 47.9728 127.603 48.0101C127.575 48.0516 127.533 48.0723 127.476 48.0723H126.824C126.762 48.0723 126.717 48.0599 126.684 48.0392C126.651 48.0184 126.622 47.977 126.597 47.9272L125.991 46.5633H123.921L123.315 47.9272C123.269 48.0267 123.195 48.0723 123.092 48.0723H122.432C122.374 48.0723 122.333 48.0516 122.304 48.0101C122.275 47.9687 122.275 47.9231 122.3 47.8733L124.614 42.8364C124.663 42.7328 124.741 42.683 124.845 42.683H125.15C125.249 42.683 125.323 42.7411 125.372 42.853L127.608 47.8733ZM124.366 45.6181H125.57L124.997 44.2625L124.366 45.6181Z" fill="#1C4F9C"/>
<path d="M129.517 47.9894C129.509 48.0101 129.488 48.0308 129.463 48.0474C129.439 48.064 129.414 48.0764 129.385 48.0764H128.956C128.931 48.0764 128.907 48.0682 128.882 48.0474C128.857 48.0308 128.841 48.0101 128.832 47.9894L127.339 44.4242C127.319 44.3744 127.323 44.3247 127.348 44.2874C127.372 44.2459 127.414 44.2252 127.471 44.2252H128.144C128.168 44.2252 128.197 44.2376 128.226 44.2625C128.255 44.2874 128.28 44.3288 128.304 44.3869L129.195 46.4804L130.045 44.3703C130.065 44.3205 130.09 44.2832 130.119 44.2584C130.148 44.2335 130.173 44.2252 130.197 44.2252H130.874C130.931 44.2252 130.973 44.2459 131.001 44.2874C131.03 44.3288 131.03 44.3744 131.006 44.4242L129.517 47.9894Z" fill="#1C4F9C"/>
<path d="M133.975 47.6992C133.839 47.8028 133.678 47.8941 133.5 47.9728C133.323 48.0516 133.142 48.093 132.964 48.093C132.7 48.093 132.453 48.0433 132.23 47.9479C132.008 47.8526 131.814 47.7158 131.653 47.5375C131.492 47.3634 131.364 47.1561 131.274 46.9198C131.183 46.6835 131.137 46.4265 131.137 46.1488C131.137 45.8834 131.187 45.6306 131.282 45.3984C131.377 45.1663 131.513 44.959 131.682 44.7807C131.851 44.6024 132.045 44.4656 132.267 44.362C132.49 44.2584 132.729 44.2086 132.985 44.2086C133.162 44.2086 133.34 44.2501 133.513 44.3288C133.686 44.4076 133.843 44.4988 133.979 44.6024V44.3703C133.979 44.3288 133.991 44.2957 134.02 44.2667C134.049 44.2376 134.082 44.2252 134.123 44.2252H134.721C134.816 44.2252 134.865 44.2749 134.865 44.3703V47.9272C134.865 48.0267 134.816 48.0723 134.721 48.0723H134.123C134.082 48.0723 134.049 48.0599 134.02 48.0309C133.991 48.0018 133.979 47.9687 133.979 47.9272V47.6992H133.975ZM132.061 46.1488C132.061 46.2856 132.086 46.4182 132.14 46.5384C132.189 46.6587 132.259 46.7664 132.346 46.8577C132.432 46.9489 132.535 47.0235 132.647 47.0774C132.762 47.1313 132.882 47.1603 133.01 47.1603C133.146 47.1603 133.274 47.1354 133.385 47.0774C133.496 47.0235 133.595 46.9489 133.682 46.8577C133.764 46.7664 133.83 46.6587 133.876 46.5384C133.921 46.4182 133.946 46.2897 133.946 46.1488C133.946 46.0078 133.921 45.8793 133.876 45.7591C133.83 45.6388 133.764 45.5311 133.682 45.4399C133.599 45.3487 133.5 45.274 133.385 45.2201C133.274 45.1663 133.146 45.1372 133.01 45.1372C132.882 45.1372 132.762 45.1621 132.647 45.2201C132.531 45.274 132.432 45.3487 132.346 45.4399C132.259 45.5311 132.189 45.6388 132.14 45.7591C132.086 45.8834 132.061 46.012 132.061 46.1488Z" fill="#1C4F9C"/>
<path d="M136.519 47.9272C136.519 48.0267 136.47 48.0723 136.375 48.0723H135.777C135.736 48.0723 135.703 48.0599 135.674 48.0309C135.645 48.0018 135.632 47.9687 135.632 47.9272V44.3703C135.632 44.3288 135.645 44.2957 135.674 44.2667C135.703 44.2376 135.736 44.2252 135.777 44.2252H136.375C136.474 44.2252 136.519 44.2749 136.519 44.3703V44.6563C136.668 44.532 136.837 44.4283 137.03 44.3413C137.224 44.2542 137.418 44.2086 137.604 44.2086C137.781 44.2086 137.95 44.2418 138.103 44.304C138.255 44.3662 138.387 44.4574 138.499 44.5734C138.61 44.6895 138.692 44.8222 138.754 44.9756C138.816 45.1289 138.845 45.2989 138.845 45.4855V47.9272C138.845 48.0267 138.795 48.0723 138.701 48.0723H138.103C138.061 48.0723 138.028 48.0599 138 48.0309C137.971 48.0018 137.958 47.9687 137.958 47.9272V45.7798C137.958 45.5684 137.909 45.4067 137.814 45.2906C137.715 45.1745 137.579 45.1165 137.402 45.1165C137.29 45.1165 137.179 45.1372 137.076 45.1828C136.973 45.2284 136.878 45.2865 136.799 45.3611C136.721 45.4357 136.655 45.5228 136.61 45.6264C136.56 45.7301 136.536 45.8378 136.536 45.9498L136.519 47.9272Z" fill="#1C4F9C"/>
<path d="M139.447 44.3703C139.447 44.2749 139.496 44.2252 139.591 44.2252H141.95C141.991 44.2252 142.024 44.2376 142.053 44.2666C142.082 44.2957 142.094 44.3288 142.094 44.3703V44.6854L140.503 47.2183H141.987C142.028 47.2183 142.061 47.2307 142.086 47.2556C142.111 47.2805 142.123 47.3137 142.123 47.3551V47.9272C142.123 47.9687 142.111 48.0018 142.086 48.0308C142.061 48.0599 142.028 48.0723 141.987 48.0723H139.373C139.331 48.0723 139.299 48.0599 139.27 48.0308C139.241 48.0018 139.228 47.9687 139.228 47.9272V47.5665L140.8 45.0792H139.587C139.546 45.0792 139.513 45.0667 139.484 45.0419C139.455 45.017 139.443 44.9838 139.443 44.9424V44.3703H139.447Z" fill="#1C4F9C"/>
<path d="M145.352 47.6992C145.216 47.8028 145.055 47.8941 144.878 47.9728C144.701 48.0516 144.519 48.093 144.342 48.093C144.078 48.093 143.831 48.0433 143.608 47.9479C143.385 47.8526 143.191 47.7158 143.031 47.5375C142.87 47.3634 142.742 47.1561 142.651 46.9198C142.561 46.6835 142.515 46.4265 142.515 46.1488C142.515 45.8834 142.565 45.6306 142.659 45.3984C142.754 45.1663 142.89 44.959 143.059 44.7807C143.229 44.6024 143.422 44.4656 143.645 44.362C143.868 44.2584 144.107 44.2086 144.363 44.2086C144.54 44.2086 144.717 44.2501 144.89 44.3288C145.064 44.4076 145.22 44.4988 145.356 44.6024V44.3703C145.356 44.3288 145.369 44.2957 145.398 44.2667C145.427 44.2376 145.46 44.2252 145.501 44.2252H146.099C146.194 44.2252 146.243 44.2749 146.243 44.3703V47.9272C146.243 48.0267 146.194 48.0723 146.099 48.0723H145.501C145.46 48.0723 145.427 48.0599 145.398 48.0309C145.369 48.0018 145.356 47.9687 145.356 47.9272V47.6992H145.352ZM143.435 46.1488C143.435 46.2856 143.459 46.4182 143.513 46.5384C143.563 46.6587 143.633 46.7664 143.719 46.8577C143.806 46.9489 143.909 47.0235 144.02 47.0774C144.136 47.1313 144.255 47.1603 144.383 47.1603C144.519 47.1603 144.647 47.1354 144.758 47.0774C144.87 47.0235 144.969 46.9489 145.055 46.8577C145.138 46.7664 145.204 46.6587 145.249 46.5384C145.295 46.4182 145.319 46.2897 145.319 46.1488C145.319 46.0078 145.295 45.8793 145.249 45.7591C145.204 45.6388 145.138 45.5311 145.055 45.4399C144.973 45.3487 144.874 45.274 144.758 45.2201C144.647 45.1663 144.519 45.1372 144.383 45.1372C144.255 45.1372 144.136 45.1621 144.02 45.2201C143.905 45.274 143.806 45.3487 143.719 45.4399C143.633 45.5311 143.563 45.6388 143.513 45.7591C143.464 45.8834 143.435 46.012 143.435 46.1488Z" fill="#1C4F9C"/>
<path d="M149.649 47.6992C149.513 47.8028 149.352 47.894 149.179 47.9728C149.002 48.0516 148.825 48.093 148.647 48.093C148.383 48.093 148.136 48.0433 147.913 47.9479C147.691 47.8526 147.497 47.7158 147.336 47.5375C147.175 47.3634 147.047 47.1561 146.957 46.9198C146.866 46.6835 146.82 46.4265 146.82 46.1487C146.82 45.8834 146.87 45.6305 146.965 45.3984C147.06 45.1662 147.196 44.959 147.365 44.7807C147.534 44.6024 147.728 44.4656 147.95 44.362C148.173 44.2584 148.412 44.2086 148.668 44.2086C148.845 44.2086 149.023 44.2459 149.192 44.3205C149.361 44.3952 149.517 44.4905 149.653 44.6024V42.4384C149.653 42.397 149.666 42.3638 149.695 42.3389C149.724 42.3141 149.757 42.3016 149.798 42.3016H150.396C150.437 42.3016 150.47 42.3141 150.499 42.3389C150.528 42.3638 150.54 42.397 150.54 42.4384V47.9314C150.54 48.0308 150.491 48.0764 150.396 48.0764H149.798C149.757 48.0764 149.724 48.064 149.695 48.035C149.666 48.006 149.653 47.9728 149.653 47.9314V47.6992H149.649ZM147.744 46.1487C147.744 46.2938 147.769 46.4265 147.814 46.555C147.86 46.6794 147.921 46.7913 148.004 46.8825C148.082 46.9737 148.181 47.0483 148.297 47.1022C148.412 47.1561 148.54 47.1851 148.676 47.1851C148.812 47.1851 148.94 47.1561 149.051 47.1022C149.163 47.0442 149.262 46.9696 149.348 46.8742C149.431 46.7789 149.497 46.6711 149.542 46.5467C149.588 46.4224 149.612 46.2938 149.612 46.1529C149.612 46.0119 149.588 45.8834 149.542 45.7632C149.497 45.643 149.431 45.5352 149.348 45.444C149.266 45.3528 149.167 45.2782 149.051 45.2243C148.94 45.1704 148.812 45.1414 148.676 45.1414C148.544 45.1414 148.42 45.1662 148.309 45.2243C148.198 45.2782 148.099 45.3528 148.012 45.444C147.93 45.5352 147.864 45.643 147.818 45.7632C147.765 45.8834 147.744 46.0119 147.744 46.1487Z" fill="#1C4F9C"/>
<path d="M151.113 46.1488C151.113 45.8751 151.163 45.6223 151.258 45.386C151.357 45.1497 151.484 44.9424 151.654 44.7683C151.818 44.5942 152.016 44.4574 152.239 44.3579C152.462 44.2584 152.705 44.2086 152.969 44.2086C153.229 44.2086 153.472 44.2584 153.695 44.3579C153.917 44.4574 154.111 44.5942 154.276 44.7683C154.441 44.9424 154.573 45.1497 154.668 45.386C154.763 45.6223 154.808 45.8751 154.808 46.1488C154.808 46.4224 154.763 46.6752 154.668 46.9115C154.573 47.1478 154.441 47.3551 154.276 47.5292C154.111 47.7034 153.913 47.8402 153.691 47.9397C153.468 48.0391 153.225 48.0889 152.965 48.0889C152.705 48.0889 152.462 48.0391 152.235 47.9397C152.008 47.8402 151.814 47.7034 151.649 47.5292C151.484 47.3551 151.352 47.1478 151.258 46.9115C151.159 46.6752 151.113 46.4224 151.113 46.1488ZM152.041 46.1488C152.041 46.2939 152.066 46.4265 152.111 46.555C152.157 46.6794 152.223 46.7913 152.301 46.8825C152.383 46.9737 152.478 47.0484 152.594 47.1022C152.705 47.1561 152.829 47.1852 152.961 47.1852C153.093 47.1852 153.216 47.1603 153.332 47.1022C153.447 47.0484 153.546 46.9737 153.629 46.8825C153.711 46.7913 153.773 46.6794 153.819 46.555C153.864 46.4307 153.889 46.2939 153.889 46.1488C153.889 46.0037 153.864 45.871 153.819 45.7425C153.773 45.6181 153.707 45.5062 153.629 45.415C153.546 45.3238 153.447 45.2492 153.332 45.1953C153.216 45.1414 153.093 45.1124 152.961 45.1124C152.829 45.1124 152.705 45.1372 152.594 45.1953C152.482 45.2492 152.383 45.3238 152.301 45.415C152.218 45.5062 152.157 45.6181 152.111 45.7425C152.062 45.871 152.041 46.0078 152.041 46.1488Z" fill="#1C4F9C"/>
<path d="M156.99 45.8254C157.08 45.8917 157.175 45.9622 157.27 46.0368C157.365 46.1114 157.452 46.1944 157.53 46.2897C157.608 46.3851 157.674 46.4887 157.724 46.6006C157.773 46.7126 157.802 46.8411 157.802 46.9862C157.802 47.123 157.777 47.2639 157.724 47.4007C157.674 47.5375 157.588 47.6578 157.472 47.7614C157.34 47.8899 157.2 47.9811 157.06 48.0309C156.92 48.0806 156.738 48.1096 156.524 48.1096C156.317 48.1096 156.103 48.0599 155.872 47.9604C155.641 47.8609 155.431 47.7324 155.237 47.5707C155.212 47.5458 155.196 47.5127 155.192 47.4795C155.188 47.4422 155.196 47.409 155.221 47.38L155.571 46.8784C155.596 46.8494 155.629 46.8286 155.662 46.8245C155.699 46.8203 155.732 46.8286 155.769 46.8535C155.884 46.9406 156.012 47.0276 156.144 47.1147C156.276 47.2017 156.421 47.2473 156.581 47.2473C156.66 47.2473 156.73 47.2225 156.792 47.1769C156.854 47.1313 156.887 47.0608 156.887 46.9696C156.887 46.9074 156.833 46.8328 156.726 46.7416C156.619 46.6504 156.507 46.5675 156.388 46.4845C156.181 46.3519 155.983 46.1861 155.79 45.9912C155.662 45.8627 155.567 45.7342 155.501 45.6098C155.435 45.4855 155.406 45.3362 155.406 45.1662C155.406 45.0129 155.439 44.8719 155.505 44.7517C155.571 44.6273 155.658 44.5237 155.765 44.4408C155.872 44.3579 155.996 44.2915 156.132 44.2501C156.268 44.2045 156.412 44.1837 156.561 44.1837C156.874 44.1837 157.175 44.2625 157.464 44.4242C157.534 44.4698 157.555 44.5361 157.518 44.6149L157.266 45.1372C157.249 45.1745 157.225 45.1994 157.192 45.216C157.159 45.2326 157.126 45.2326 157.089 45.216C156.977 45.158 156.882 45.1165 156.8 45.0875C156.722 45.0585 156.647 45.046 156.573 45.046C156.515 45.046 156.462 45.0585 156.408 45.0875C156.355 45.1165 156.326 45.1497 156.326 45.1911C156.326 45.2906 156.367 45.3694 156.449 45.4316C156.511 45.4813 156.577 45.5352 156.652 45.5891C156.726 45.643 156.845 45.7218 156.99 45.8254Z" fill="#1C4F9C"/>
<path d="M100.011 43.5204L100.328 43.765L101.318 42.9649L100.502 42.6623L100.011 43.5204Z" fill="#1C4F9C"/>
<path d="M17.3282 0H11.9838V44.8429H17.3282V0Z" fill="#1C4F9C"/>
<path d="M9.96727 30.5033C7.20431 28.8782 5.34447 25.8644 5.34447 22.4194C5.34447 18.9744 7.20431 15.9605 9.96727 14.3355V8.4653C4.18155 10.4386 0 15.944 0 22.4194C0 28.8948 4.18155 34.4043 9.96727 36.3734V30.5033Z" fill="#1C4F9C"/>
<path d="M19.3407 8.4653V14.3355C22.1037 15.9605 23.9635 18.9744 23.9635 22.4194C23.9635 25.8644 22.1037 28.8782 19.3407 30.5033V36.3734C25.1305 34.4043 29.308 28.8948 29.308 22.4194C29.308 15.944 25.1305 10.4386 19.3407 8.4653Z" fill="#1C4F9C"/>
</g>
<defs>
<clipPath id="clip0_210_3">
<rect width="158" height="50" fill="white"/>
</clipPath>
</defs>
</svg>
